<svg id="logo_p2pb2b" data-name="logo p2pb2b" xmlns="http://www.w3.org/2000/svg" width="122.997" height="28.003" viewBox="0 0 122.997 28.003">
  <path id="Tracé_280" data-name="Tracé 280" d="M50.906,0h9.8A14.364,14.364,0,0,1,75.077,14.362v9.8A3.838,3.838,0,0,1,71.242,28H61.5a14.418,14.418,0,0,1-14.431-14.42V3.837A3.837,3.837,0,0,1,50.906,0Z" fill="#0a7542"/>
  <path id="Tracé_281" data-name="Tracé 281" d="M61.151,9.791a4.214,4.214,0,1,1-2.974,1.234A4.21,4.21,0,0,1,61.151,9.791Zm0-4.506a8.714,8.714,0,1,0,6.166,2.552,8.718,8.718,0,0,0-6.166-2.552Z" fill="#f1f2f2"/>
  <path id="Tracé_282" data-name="Tracé 282" d="M56.949,5.285H55.34A3.052,3.052,0,0,0,52.287,8.34V24.652a14.434,14.434,0,0,0,4.669,2.607V5.285Z" fill="#f1f2f2"/>
  <path id="Tracé_283" data-name="Tracé 283" d="M61.2,5.288H55.755v2.9H61.2Z" fill="#f1f2f2"/>
  <path id="Tracé_284" data-name="Tracé 284" d="M5.951,5.89H6.4a6.1,6.1,0,0,1,4.379,1.973,5.9,5.9,0,0,1,1.61,3.985v.1a5.9,5.9,0,0,1-2.776,5.005,6.22,6.22,0,0,1-3.384.995H6.118a6.509,6.509,0,0,1-2.84-.692v6.676a.045.045,0,0,1-.052.052H.052A.045.045,0,0,1,0,23.931V11.7A5.938,5.938,0,0,1,1.987,7.464,6.241,6.241,0,0,1,5.951,5.89Zm.193,3.219H6.028a2.852,2.852,0,0,0-2.412,1.484,3.218,3.218,0,0,0-.338,1.333,2.8,2.8,0,0,0,1.681,2.552,3.015,3.015,0,0,0,1.159.251h.129a2.8,2.8,0,0,0,2.518-1.535,2.6,2.6,0,0,0,.322-1.22v-.125A2.781,2.781,0,0,0,7.512,9.386a2.915,2.915,0,0,0-1.149-.277H6.224L6.215,9.1a.023.023,0,0,1-.006-.019Z" fill="#fff"/>
  <path id="Tracé_285" data-name="Tracé 285" d="M36.507,5.89h.451a6.107,6.107,0,0,1,4.376,1.973,5.9,5.9,0,0,1,1.61,3.985v.1a5.9,5.9,0,0,1-2.775,5.005,6.216,6.216,0,0,1-3.381.995h-.1a6.491,6.491,0,0,1-2.84-.692v6.676a.047.047,0,0,1,0,.02.049.049,0,0,1-.011.017.048.048,0,0,1-.038.014H30.6a.048.048,0,0,1-.02,0,.049.049,0,0,1-.028-.028.05.05,0,0,1,0-.02V11.7a5.933,5.933,0,0,1,1.99-4.236A6.25,6.25,0,0,1,36.507,5.89ZM36.7,9.109h-.116a2.854,2.854,0,0,0-2.415,1.484,3.2,3.2,0,0,0-.322,1.333,2.8,2.8,0,0,0,1.678,2.552,3.029,3.029,0,0,0,1.162.251h.129a2.8,2.8,0,0,0,2.518-1.535,2.6,2.6,0,0,0,.322-1.22v-.125a2.782,2.782,0,0,0-1.574-2.462,2.941,2.941,0,0,0-1.149-.277H36.8c-.019,0-.026,0-.026-.026Z" fill="#fff"/>
  <path id="Tracé_286" data-name="Tracé 286" d="M20.678,5.845h.4a5.58,5.58,0,0,1,3.9,1.709,5.256,5.256,0,0,1,1.484,3.457v.467A4.55,4.55,0,0,1,25.353,14.2L20.7,20.944h5.474a.049.049,0,0,1,.052.051v2.791c0,.032,0,.048-.052.048H15.153v-.048q5.5-7.986,5.8-8.369a29.537,29.537,0,0,0,2.325-3.093,2.366,2.366,0,0,0,.245-1.03,2.536,2.536,0,0,0-1.446-2.289,2.435,2.435,0,0,0-1.017-.264h-.3a2.5,2.5,0,0,0-2.012,1.12,2.411,2.411,0,0,0-.451,1.432,2.511,2.511,0,0,0,.322,1.194l-.052.026H15.455c-.1-.026-.161-.451-.193-1.271a5.321,5.321,0,0,1,1.932-4.085A5.475,5.475,0,0,1,20.678,5.845Z" fill="#fff"/>
  <path id="Tracé_287" data-name="Tracé 287" d="M79.8,5.771h3.175a.049.049,0,0,1,.051.051v6.663h.026a6.357,6.357,0,0,1,2.9-.692A6.266,6.266,0,0,1,91.1,14.484a6.043,6.043,0,0,1,1.03,3.319v.1a5.968,5.968,0,0,1-2.737,4.954,6.276,6.276,0,0,1-3.188.995h-.528a6.158,6.158,0,0,1-4.067-1.683,5.876,5.876,0,0,1-1.858-4.114V5.823A.048.048,0,0,1,79.8,5.771Zm3.252,11.909v.138a.022.022,0,0,1,0,.01.023.023,0,0,1-.006.009l-.009.006h-.01l.026.051v.074A2.791,2.791,0,0,0,84.7,20.423a3.679,3.679,0,0,0,1.227.251,2.918,2.918,0,0,0,2.711-1.786,3.129,3.129,0,0,0,.18-.966V17.8A2.733,2.733,0,0,0,87.3,15.37a2.962,2.962,0,0,0-4.144,1.677,2.574,2.574,0,0,0-.1.618Z" fill="#fff"/>
  <path id="Tracé_288" data-name="Tracé 288" d="M110.672,5.771h3.175a.049.049,0,0,1,.051.051v6.663h.026a6.367,6.367,0,0,1,2.9-.692,6.26,6.26,0,0,1,5.151,2.691A6.021,6.021,0,0,1,123,17.8v.1a5.967,5.967,0,0,1-2.737,4.954,6.288,6.288,0,0,1-3.187.995h-.515a6.17,6.17,0,0,1-4.067-1.683,5.875,5.875,0,0,1-1.858-4.114V5.823A.042.042,0,0,1,110.672,5.771Zm3.252,11.909v.138a.025.025,0,0,1-.026.026l.026.051v.074a2.788,2.788,0,0,0,1.655,2.453,3.671,3.671,0,0,0,1.223.251,2.909,2.909,0,0,0,2.711-1.786,3.033,3.033,0,0,0,.181-.966V17.8a2.734,2.734,0,0,0-1.523-2.427,2.962,2.962,0,0,0-4.144,1.677,2.589,2.589,0,0,0-.1.618Z" fill="#fff"/>
  <path id="Tracé_289" data-name="Tracé 289" d="M100.423,5.845h.4a5.593,5.593,0,0,1,3.9,1.709,5.28,5.28,0,0,1,1.484,3.457v.467A4.541,4.541,0,0,1,105.1,14.2l-4.636,6.74h5.473a.049.049,0,0,1,.052.051v2.791c0,.032-.016.048-.052.048H94.9v-.048q5.5-7.986,5.8-8.369a31.176,31.176,0,0,0,2.324-3.093,2.361,2.361,0,0,0,.245-1.03,2.525,2.525,0,0,0-1.446-2.289,2.446,2.446,0,0,0-1.02-.264h-.3a2.5,2.5,0,0,0-2.012,1.12,2.414,2.414,0,0,0-.454,1.432,2.479,2.479,0,0,0,.322,1.194l-.052.026H95.243c-.093-.026-.158-.451-.193-1.271A5.3,5.3,0,0,1,97,7.158,5.475,5.475,0,0,1,100.423,5.845Z" fill="#fff"/>
</svg>
